PathFileType	4	(X/Y/Z)	Kaydara	
DataRate	CameraRate	NumFrames	NumMarkers	Units	OrigDataRate	OrigDataStartFrame	OrigNumFrames	
60.00	60.00	4	74	mm	60.00	697	204	
Frame#	Time	Z_lasi			Z_rasi			Z_rpsi			Z_lpsi			Z_fneck			Z_bneck			Z_fhead			Z_rhead			Z_lhead			Z_rshld			Z_relbtop			Z_relbext			Z_relblow			Z_rwrext			Z_rwrtop			Z_rwrlow			Z_lshld			Z_lelbext			Z_lelblow			Z_lelbtop			Z_lwrext			Z_lwrtop			Z_lwrlow			Z_rtopleg			Z_ltopleg			Z_rkneefr			Z_rkneebk			Z_rkneeis			Z_lkneefr			Z_lknssbk			Z_lkneeis			Z_rankfr			Z_rankis			Z_rankbk			Z_lankfr			Z_lankbk			Z_lankis			N_lasi			N_rasi			N_rpsi			N_lpsi			N_fneck			N_bneck			N_fhead			N_rhead			N_lhead			N_rshld			N_relbtop			N_relbext			N_relblow			N_rwrext			N_rwrtop			N_rwrlow			N_lshld			N_lelbext			N_lelblow			N_lelbtop			N_lwrext			N_lwrtop			N_lwrlow			N_rtopleg			N_ltopleg			N_rkneefr			N_rkneebk			N_rkneeis			N_lkneefr			N_lknssbk			N_lkneeis			N_rankfr			N_rankis			N_rankbk			N_lankfr			N_lankbk			N_lankis			
		X1	Y1	Z1	X2	Y2	Z2	X3	Y3	Z3	X4	Y4	Z4	X5	Y5	Z5	X6	Y6	Z6	X7	Y7	Z7	X8	Y8	Z8	X9	Y9	Z9	X10	Y10	Z10	X11	Y11	Z11	X12	Y12	Z12	X13	Y13	Z13	X14	Y14	Z14	X15	Y15	Z15	X16	Y16	Z16	X17	Y17	Z17	X18	Y18	Z18	X19	Y19	Z19	X20	Y20	Z20	X21	Y21	Z21	X22	Y22	Z22	X23	Y23	Z23	X24	Y24	Z24	X25	Y25	Z25	X26	Y26	Z26	X27	Y27	Z27	X28	Y28	Z28	X29	Y29	Z29	X30	Y30	Z30	X31	Y31	Z31	X32	Y32	Z32	X33	Y33	Z33	X34	Y34	Z34	X35	Y35	Z35	X36	Y36	Z36	X37	Y37	Z37	X38	Y38	Z38	X39	Y39	Z39	X40	Y40	Z40	X41	Y41	Z41	X42	Y42	Z42	X43	Y43	Z43	X44	Y44	Z44	X45	Y45	Z45	X46	Y46	Z46	X47	Y47	Z47	X48	Y48	Z48	X49	Y49	Z49	X50	Y50	Z50	X51	Y51	Z51	X52	Y52	Z52	X53	Y53	Z53	X54	Y54	Z54	X55	Y55	Z55	X56	Y56	Z56	X57	Y57	Z57	X58	Y58	Z58	X59	Y59	Z59	X60	Y60	Z60	X61	Y61	Z61	X62	Y62	Z62	X63	Y63	Z63	X64	Y64	Z64	X65	Y65	Z65	X66	Y66	Z66	X67	Y67	Z67	X68	Y68	Z68	X69	Y69	Z69	X70	Y70	Z70	X71	Y71	Z71	X72	Y72	Z72	X73	Y73	Z73	X74	Y74	Z74	

1	11.600	-1351.18668	1022.41470	-300.37037	-1561.96655	1022.23373	-414.11385	-1440.37369	1075.21179	-574.69521	-1274.64493	1071.56761	-476.40228	-1434.71802	1469.44977	-314.34696	-1416.01227	1544.71298	-407.41898	-1464.55566	1597.43805	-187.86741	-1523.05191	1654.56711	-361.39038	-1391.78925	1657.13394	-348.94985	-1620.60516	1417.44812	-514.79359	-1648.35236	1127.11365	-596.89636	-1592.51755	1110.85533	-555.81024	-1685.87372	1143.58871	-523.46947	-1711.10657	877.45682	-539.04602	-1739.98459	885.90622	-504.41574	-1707.07809	894.13033	-471.25053	-1229.59717	1434.72748	-320.74440	-1223.91190	1110.73074	-379.33266	-1167.65427	1134.75266	-308.11945	-1150.83717	1114.26559	-386.15959	-1136.52992	903.32458	-306.71015	-1150.84183	910.97847	-267.50082	-1195.25436	906.36673	-279.05609	-1557.07550	914.74487	-539.27734	-1265.61752	944.03801	-331.09928	-1552.21680	443.10524	-465.36911	-1552.59460	478.36494	-550.82104	-1456.90948	464.93587	-482.01637	-1406.94580	471.83167	-195.33344	-1327.65778	501.72798	-225.07626	-1428.69553	506.12358	-297.42477	-1523.10501	187.91977	-525.78266	-1446.06552	189.46556	-550.52002	-1497.62543	186.90899	-600.19691	-1318.00705	246.55985	-357.16454	-1348.60336	266.83008	-413.26729	-1396.59775	247.57778	-358.49602	41.58366	1010.22324	767.90337	199.01592	1015.45044	932.53960	5.55677	1082.19833	1084.40628	-131.84973	1068.47290	887.48230	124.84735	1493.06137	845.03525	26.10686	1564.32999	924.35287	164.59759	1698.33771	740.13084	153.93641	1695.95551	916.73439	21.14783	1701.23276	833.05870	167.93335	1469.17282	1088.39417	107.28312	1182.25052	1214.11903	60.80015	1165.88173	1145.60364	155.31604	1174.59885	1157.46384	176.59275	930.27718	1202.85202	224.43930	942.39067	1188.52882	220.11759	943.35007	1142.38663	-62.80887	1467.80243	714.89792	-72.94179	1129.44595	638.17299	-5.75052	1180.47440	721.64757	-39.03352	1184.09607	656.92085	158.81294	1038.27049	705.61478	186.24128	1082.98302	715.24620	175.57703	1084.11171	764.78577	158.81513	903.85330	1103.44467	-84.52746	871.61995	781.95663	296.53992	483.26775	979.15016	216.11698	532.97375	1052.19345	185.00393	488.95100	948.78014	66.92041	451.43368	943.05801	-36.90173	466.51829	910.96626	1.03401	482.81746	1030.64064	200.85520	205.79620	1097.31079	133.26538	215.11803	1070.77660	159.79546	224.94171	1146.53793	19.70332	133.88074	1005.42656	-33.98632	156.12880	1082.50221	40.65866	158.87777	1071.03134 
2	11.617	-1357.37228	1022.48299	-291.06344	-1569.36432	1022.71034	-402.12170	-1449.97208	1076.91505	-564.12441	-1283.39355	1072.67204	-468.12237	-1440.41992	1470.05966	-302.15113	-1424.18610	1545.28610	-395.44250	-1466.43936	1598.26797	-175.14524	-1530.51422	1654.85168	-346.84586	-1399.18396	1657.69272	-338.35686	-1630.09827	1418.50906	-499.19724	-1661.58035	1128.60954	-581.45329	-1604.77814	1112.21382	-542.04029	-1696.60645	1145.29625	-506.80954	-1723.80844	879.26674	-520.91217	-1751.52710	888.04214	-485.39753	-1717.59781	896.26045	-453.29979	-1235.82390	1435.70160	-312.95765	-1231.14212	1112.35672	-373.22952	-1172.70828	1136.25542	-303.68690	-1158.11989	1115.20226	-382.32529	-1145.28030	904.35043	-301.31191	-1157.61925	912.64687	-261.75447	-1202.47231	908.88847	-271.59063	-1565.24399	916.22559	-529.29115	-1272.54845	944.66248	-322.89497	-1554.73557	444.00112	-461.65146	-1555.67291	479.83009	-546.99783	-1459.74808	466.62704	-478.07362	-1418.35770	472.70512	-183.74760	-1338.20023	498.04798	-215.38706	-1437.19894	502.75173	-287.49746	-1524.85764	189.36745	-524.20437	-1447.75604	191.27884	-548.80814	-1498.90488	188.90278	-598.93188	-1340.06821	233.41339	-327.35474	-1370.53131	250.44502	-384.78294	-1418.48602	237.69587	-327.25285	50.45942	1009.01840	758.86345	211.97502	1013.05733	915.30983	25.25527	1080.87479	1076.20056	-118.88344	1067.49496	884.22775	137.78899	1491.31561	833.26927	41.51766	1562.50137	915.44060	175.79252	1697.48032	728.93005	168.73884	1693.90244	906.36208	34.42108	1699.72977	825.10353	187.29303	1466.12366	1075.22224	128.12737	1180.81940	1204.59641	77.97989	1165.08476	1138.12439	174.58361	1172.77237	1146.38916	198.86642	929.03778	1189.41765	246.07468	941.78062	1173.84621	240.40377	943.10707	1127.60345	-53.29909	1468.06580	708.17093	-62.39859	1131.14632	628.90968	6.41313	1181.73012	711.06888	-28.49031	1185.79651	647.65755	178.53237	1055.88089	697.61581	202.73800	1102.68265	705.40680	192.93446	1105.18341	755.91522	181.03405	902.17117	1088.67943	-77.49429	870.70557	778.24883	314.69086	484.60411	954.35272	236.98431	527.73087	1032.86049	201.43032	485.25688	930.88783	69.47768	449.65843	939.78783	-35.27024	466.12057	909.95575	5.82515	483.29239	1028.73169	247.23570	197.46246	1065.25963	177.59695	202.75505	1043.53951	208.40250	211.45329	1118.04337	19.61182	133.64515	1005.42168	-32.67198	157.16085	1082.65152	42.43782	158.74714	1070.39040 
3	11.633	-1363.33923	1021.73523	-281.65594	-1576.64749	1022.73773	-390.02178	-1459.36600	1078.15994	-553.18214	-1291.47324	1072.82600	-459.52442	-1445.63690	1470.01968	-289.71228	-1431.94061	1545.13809	-383.21987	-1468.19031	1598.30505	-162.22208	-1537.56241	1654.32709	-332.17758	-1406.27960	1657.39685	-327.65846	-1638.95660	1418.93082	-483.73604	-1673.88046	1129.32579	-565.47585	-1616.37238	1112.73712	-527.59991	-1706.69571	1146.28777	-489.83498	-1735.86014	880.50949	-502.51652	-1762.44064	889.55070	-466.19373	-1727.48871	897.62344	-435.25925	-1241.59958	1435.62302	-304.35390	-1238.31215	1113.04283	-366.59569	-1177.99126	1136.46721	-299.16931	-1165.16075	1115.13481	-377.68566	-1153.64044	904.46625	-294.86629	-1164.82994	913.59650	-254.99048	-1209.79637	910.41664	-263.50094	-1573.51639	917.22092	-518.91483	-1279.40147	944.30595	-314.58481	-1557.25693	444.37206	-457.96135	-1558.58368	480.91793	-543.01376	-1462.44446	467.91912	-474.23439	-1429.92706	471.74423	-172.73184	-1348.35693	493.17173	-207.02517	-1446.78696	496.94202	-278.84081	-1526.24374	190.35599	-522.64816	-1448.50143	192.88124	-547.49142	-1499.85870	190.54811	-597.43504	-1360.51605	220.73906	-296.25458	-1391.39755	233.98598	-354.64684	-1438.37952	227.23738	-295.43116	59.51269	1007.30309	749.83841	225.94042	1010.27771	900.89218	44.50415	1079.03206	1067.99774	-106.04666	1065.92247	880.54077	150.94233	1488.60046	821.19919	57.06338	1560.21027	906.29524	187.06085	1695.63950	717.58812	183.70575	1691.29196	895.33920	47.72884	1697.54623	816.90231	206.55964	1462.19086	1061.28868	148.99802	1178.54683	1194.57596	97.63818	1162.29279	1129.17870	194.03858	1170.25276	1134.95239	221.24949	927.21741	1175.85228	267.74252	940.48706	1158.73100	260.59883	942.05757	1112.89169	-43.28989	1467.58652	700.88539	-52.93445	1131.68205	620.02560	17.49772	1181.82129	700.86922	-19.02617	1186.33217	638.77346	195.84862	1071.81938	688.41331	217.02719	1120.34523	693.93417	207.69417	1123.98346	744.28917	202.39601	899.46457	1073.44185	-70.30279	869.15947	774.21227	331.70254	485.02327	929.63737	256.84528	521.55682	1013.55148	216.86308	481.19751	912.95868	72.96346	447.79301	936.24657	-31.62692	465.58941	907.50771	11.46358	483.41862	1026.11366	292.26046	190.41010	1030.04211	221.11809	191.85349	1013.22784	256.45138	199.22535	1085.54260	20.08606	133.19081	1005.35149	-31.38904	158.06540	1082.54082	43.37533	158.66876	1070.04555 
4	11.650	-1369.11545	1020.14595	-272.07638	-1583.77625	1022.22260	-377.69142	-1468.45978	1078.75137	-541.83880	-1299.41559	1072.12868	-450.39909	-1450.50262	1469.11865	-276.80496	-1438.84583	1544.24805	-370.69359	-1469.82712	1597.74078	-148.96235	-1543.99063	1653.15155	-317.44986	-1412.77573	1656.40244	-316.16617	-1647.11319	1418.75580	-467.86919	-1685.90714	1129.55154	-550.01213	-1626.99127	1112.49405	-512.44637	-1716.16623	1146.58340	-472.70363	-1747.14676	880.90294	-483.79879	-1772.75116	890.45120	-446.83205	-1737.20520	898.45558	-416.78158	-1247.04002	1434.56390	-294.84695	-1245.02869	1112.73499	-359.41978	-1183.64975	1135.99998	-293.04113	-1172.38930	1114.01810	-372.01897	-1162.05276	903.71567	-287.43769	-1172.21657	913.47893	-247.41932	-1217.33253	910.83244	-254.75227	-1581.65848	917.57187	-508.14213	-1286.29868	942.99515	-306.21393	-1559.73022	444.31068	-454.05884	-1561.31577	481.70979	-538.97675	-1465.06409	468.74382	-469.97913	-1439.64935	469.15337	-164.95621	-1358.72299	486.98418	-199.48750	-1456.77750	489.54563	-271.41104	-1527.12357	190.68741	-521.61835	-1449.50241	194.07238	-545.82806	-1500.63843	191.89789	-595.97454	-1379.41162	209.08484	-263.71771	-1411.20926	218.04379	-322.32784	-1456.57089	218.07867	-262.38018	68.74370	1004.68765	740.76370	239.90143	1006.74568	886.47522	62.97875	1076.42014	1059.80515	-92.58015	1063.68713	876.36948	163.90289	1485.20096	809.08707	72.65789	1557.06573	896.58119	198.32506	1692.91611	705.03860	199.35452	1687.73407	883.49884	61.40717	1694.53598	808.11615	225.61832	1457.72797	1047.02919	170.58081	1175.68893	1184.22165	117.21865	1159.22852	1120.05936	213.75280	1167.01889	1123.30849	243.50643	924.69788	1162.02492	289.31747	938.36815	1143.43155	280.68085	940.04929	1097.78748	-32.58760	1466.37253	693.06068	-44.56553	1131.07567	611.24840	27.48708	1180.77026	690.77652	-10.65725	1185.72586	629.99626	210.72330	1085.68497	678.05527	229.14677	1135.52101	681.16867	220.46217	1140.75584	731.17691	223.72826	895.62180	1058.50479	-62.62088	867.31659	769.75174	347.65102	484.73743	904.99756	276.73874	514.68689	995.43900	231.67667	476.61938	896.12991	77.29681	445.55904	932.26051	-27.19961	464.87679	904.60869	18.11557	483.44139	1023.07098	335.22522	185.20842	991.66138	262.81689	182.31098	980.81932	303.62406	188.57937	1050.65475	20.40801	132.39271	1005.44769	-29.77989	158.87985	1082.26624	44.85218	158.63332	1069.40002 
